    <svg
      viewBox="0 0 1651 512"
      fill="none"
      xmlns="http://www.w3.org/2000/svg"
      aria-hidden="true"
    >
      <path
        d="M769.326 145.48V174.86C769.326 179.53 770.953 183.494 774.207 186.753C777.461 190.011 781.421 191.64 786.085 191.64H975.399C980.064 191.64 984.023 193.269 987.277 196.528C990.532 199.786 992.159 203.751 992.159 208.421V304.95C992.159 309.621 990.532 313.585 987.277 316.844C984.023 320.102 980.064 321.731 975.399 321.731H786.085C781.421 321.731 777.461 323.36 774.207 326.619C770.953 329.877 769.326 333.841 769.326 338.512V365.095C769.326 369.765 770.953 373.729 774.207 376.988C777.461 380.246 781.421 381.875 786.085 381.875H1003.33C1008 381.875 1011.96 383.504 1015.21 386.763C1018.46 390.021 1020.09 393.986 1020.09 398.656V495.185C1020.09 499.856 1018.46 503.82 1015.21 507.079C1011.96 510.337 1008 511.966 1003.33 511.966H647.753C643.089 511.966 639.13 510.337 635.875 507.079C632.621 503.82 630.994 499.856 630.994 495.185V16.7739C630.994 12.1036 632.621 8.13923 635.875 4.88085C639.13 1.62248 643.089 -0.00671387 647.753 -0.00671387H1003.33C1008 -0.00671387 1011.96 1.62248 1015.21 4.88085C1018.46 8.13923 1020.09 12.1036 1020.09 16.7739V111.891C1020.09 116.562 1018.46 120.526 1015.21 123.785C1011.96 127.043 1008 128.672 1003.33 128.672H786.085C781.421 128.672 777.461 130.301 774.207 133.56C770.953 136.818 769.326 140.782 769.326 145.453V145.48Z"
        fill="white"
      />
      <path
        fill-rule="evenodd"
        clip-rule="evenodd"
        d="M569.519 17.4799V495.213C569.519 499.883 567.892 503.847 564.637 507.106C561.383 510.364 557.424 511.993 552.76 511.993H468.584C465.573 484.351 449.926 360.451 405.831 294.931C401.059 287.844 390.862 286.812 384.815 292.867C370.55 307.123 347.174 345.246 323.879 408.947C311.378 406.883 298.442 405.797 285.208 405.797C271.974 405.797 259.012 406.883 246.51 408.947C223.215 345.246 199.866 307.123 185.602 292.867C179.554 286.812 169.358 287.844 164.585 294.931C120.49 360.451 104.843 484.351 101.833 511.993H17.6567C12.9923 511.993 9.03302 510.364 5.7788 507.106C2.52457 503.847 0.897461 499.883 0.897461 495.213V17.4799C0.897461 12.8096 2.52457 8.84522 5.7788 5.58684C9.06014 2.32846 12.9923 0.699272 17.6567 0.699272H115.446C120.111 0.699272 124.992 2.11124 130.117 4.90801C135.243 7.70479 138.958 10.9632 141.29 14.7103L275.418 211.951C278.212 215.671 281.466 217.544 285.208 217.544C288.95 217.544 291.961 215.671 294.293 211.951L428.421 14.6831C431.214 10.9632 435.174 7.67763 440.299 4.88086C445.424 2.08408 450.306 0.672119 454.97 0.672119H552.76C557.424 0.672119 561.383 2.30131 564.637 5.55969C567.892 8.81807 569.519 12.7824 569.519 17.4528V17.4799Z"
        fill="white"
      />
      <path
        fill-rule="evenodd"
        clip-rule="evenodd"
        d="M1650.57 495.213V17.4799C1650.57 12.8096 1648.94 8.84524 1645.69 5.58686C1642.43 2.32848 1638.47 0.699295 1633.81 0.699295H1549.63C1546.62 28.3412 1530.98 152.241 1486.88 217.762C1482.11 224.849 1471.91 225.88 1465.86 219.825C1451.6 205.57 1428.22 167.447 1404.93 103.746C1392.43 105.809 1379.49 106.895 1366.23 106.895C1352.97 106.895 1340.03 105.809 1327.53 103.746C1304.24 167.447 1280.86 205.57 1266.6 219.825C1260.55 225.88 1250.35 224.849 1245.58 217.762C1201.49 152.241 1185.84 28.3412 1182.83 0.699295H1098.65C1093.99 0.699295 1090.03 2.32848 1086.77 5.58686C1083.52 8.84524 1081.89 12.8096 1081.89 17.4799V495.213C1081.89 499.883 1083.52 503.847 1086.77 507.106C1090.03 510.364 1093.99 511.993 1098.65 511.993H1196.44C1201.11 511.993 1205.99 510.608 1211.11 507.785C1216.24 504.988 1219.95 501.729 1222.29 497.982L1356.41 300.742C1359.21 297.022 1362.46 295.148 1366.2 295.148C1369.95 295.148 1372.96 297.022 1375.29 300.742L1509.42 497.982C1512.21 501.702 1516.17 504.988 1521.3 507.785C1526.42 510.581 1531.3 511.993 1535.97 511.993H1633.76C1638.42 511.993 1642.38 510.364 1645.63 507.106C1648.89 503.847 1650.51 499.883 1650.51 495.213H1650.57Z"
        fill="white"
      />
    </svg>